<?xml version="1.0" encoding="utf-8"?>
<!-- Generator: Adobe Illustrator 20.1.0, SVG Export Plug-In . SVG Version: 6.00 Build 0)  -->
<svg version="1.1" id="Layer_1" xmlns="http://www.w3.org/2000/svg" xmlns:xlink="http://www.w3.org/1999/xlink" x="0px" y="0px"
	 viewBox="0 0 140 40" style="enable-background:new 0 0 140 40;" xml:space="preserve">
<style type="text/css">
	.st0{fill:#009BA7;}
	.st1{fill:#63A70A;}
	.st2{fill:#FFFFFF;}
	.st3{fill:#63A70A;stroke:#63A70A;stroke-width:8.463000e-02;}
	.st4{fill:#76B72A;}
	.st5{fill:#848383;}
	.st6{fill:none;stroke:#76B72A;stroke-width:12;stroke-miterlimit:10;}
	.st7{opacity:0.8;fill:#157ABF;}
	.st8{opacity:0.8;fill:#71C7B3;}
	.st9{fill:none;stroke:#FFFFFF;stroke-miterlimit:10;}
	.st10{fill:#474748;}
	.st11{opacity:0.8;}
	.st12{fill:#157ABF;}
	.st13{fill:#71C7B3;}
</style>
<g>
	<g>
		<polygon class="st7" points="29.2,8 42.9,1.6 42.9,1.6 45.3,4 40.7,6.2 31.9,10.6 		"/>
		<polygon class="st8" points="38.9,17.7 45.2,4 45.3,4 42.9,1.6 40.6,6.2 36.2,15 		"/>
	</g>
	<g>
		<polygon class="st7" points="8.4,14.3 22.1,7.9 22.1,7.9 24.5,10.3 19.9,12.5 11.1,16.9 		"/>
		<polygon class="st8" points="18.1,24 24.5,10.3 24.5,10.3 22.1,7.9 19.8,12.5 15.4,21.3 		"/>
	</g>
	<g>
		<polygon class="st7" points="22.8,28.7 36.5,22.3 36.5,22.3 38.9,24.7 34.3,27 25.5,31.4 		"/>
		<polygon class="st8" points="32.5,38.4 38.9,24.7 38.9,24.7 36.5,22.3 34.2,26.9 29.8,35.7 		"/>
	</g>
	<g>
		<g>
			<path class="st10" d="M59.7,21.8c-1,0-2.2,0-2.2,0v3.1h-1.2V13.4h1.3h0.3h2.3v0c2.2,0.1,3.5,1.8,3.5,4.2c0,1.7-0.8,3.1-2.1,3.8
				C61.6,21.4,61,21.8,59.7,21.8z M57.5,20.6h2.6c1.6-0.1,2.5-1.5,2.5-3c0-1.5-0.7-2.7-2.3-3h-2.7V20.6z"/>
			<path class="st10" d="M76.4,19.1c0,3.3-2.6,5.9-5.7,5.9c-3.2,0-5.7-2.7-5.7-5.9c0-3.3,2.6-5.9,5.7-5.9
				C73.9,13.2,76.4,15.9,76.4,19.1z M75.3,19.1c0-2.6-2.1-4.8-4.6-4.8c-2.5,0-4.5,2.2-4.5,4.8c0,2.6,2.1,4.7,4.5,4.7
				C73.2,23.9,75.3,21.8,75.3,19.1z"/>
			<path class="st10" d="M83.1,21.6l2.3,3.3H84l-2.2-3c-0.1,0-0.3,0-0.4,0c-1,0-2.2,0-2.2,0v3.1h-1.2V13.4h1.3h0.3H82v0
				c2.2,0.1,3.5,1.8,3.5,4.2c0,1.7-0.8,3.1-2.1,3.8C83.4,21.4,83.3,21.5,83.1,21.6z M81.8,20.6c1.6-0.1,2.5-1.5,2.5-3
				c0-1.5-0.7-2.7-2.4-3h-2.7v6H81.8z"/>
			<path class="st10" d="M94.2,13.4v1h-3.5v10.4h-1.2V14.5h-3.3v-1H94.2z"/>
		</g>
		<path class="st10" d="M113.1,23.5v1.2h-4.9h-1.1h-0.5V13.3h1.2v10.2H113.1z"/>
		<path class="st10" d="M117.3,24.7h-1.2V13.4h1.2V24.7z"/>
		<g class="st11">
			<g>
				<g>
					<polygon class="st12" points="93.8,24.7 98,13.3 98,13.3 100.8,13.2 99.4,17.2 96.9,24.7 					"/>
				</g>
				<g>
					<polygon class="st12" points="98,13.3 100.8,13.2 100.8,13.2 105.3,24.7 102.2,24.7 99.4,17.2 					"/>
				</g>
			</g>
		</g>
		<g class="st11">
			<g>
				<g>
					<polygon class="st13" points="120.2,24.7 124.4,13.3 124.4,13.3 127.1,13.2 125.8,17.2 123.2,24.7 					"/>
				</g>
				<g>
					<polygon class="st13" points="124.4,13.3 127.1,13.2 127.1,13.2 131.6,24.7 128.5,24.7 125.8,17.2 					"/>
				</g>
			</g>
		</g>
		<rect x="114.6" y="13.4" class="st10" width="4.3" height="1"/>
		<rect x="114.6" y="23.7" class="st10" width="4.3" height="1"/>
	</g>
</g>
</svg>
